<?xml version="1.0" encoding="UTF-8" standalone="no"?>
<svg
        xmlns:dc="http://purl.org/dc/elements/1.1/"
        xmlns:cc="http://creativecommons.org/ns#"
        xmlns:rdf="http://www.w3.org/1999/02/22-rdf-syntax-ns#"
        xmlns:svg="http://www.w3.org/2000/svg"
        xmlns="http://www.w3.org/2000/svg"
        viewBox="0 0 271.62668 272.12"
        height="272.12"
        width="271.62668"
        xml:space="preserve"
        id="svg2"
        version="1.1"><metadata
     id="metadata8"><rdf:RDF><cc:Work
         rdf:about=""><dc:format>image/svg+xml</dc:format><dc:type
        rdf:resource="http://purl.org/dc/dcmitype/StillImage"/></cc:Work></rdf:RDF></metadata>
  <defs
          id="defs6"/>
  <g
          transform="matrix(1.3333333,0,0,-1.3333333,0,272.12)"
          id="g10"><g
       transform="scale(0.1)"
       id="g12"><path
         id="path14"
         style="fill:#ffffff;fill-opacity:1;fill-rule:nonzero;stroke:none"
         d="m 1754.77,764.199 c 0,0 -42.47,-637.078 -736.2,-637.078 -696.547,0 -736.175,637.078 -736.175,637.078 L 146.484,1913.79 H 1890.67 Z M 0,2040.91 159.789,689.648 C 159.789,689.648 242.496,0 1007.84,0 h 21.49 c 768.14,0 848.03,689.648 848.03,689.648 l 159.8,1351.262 H 0" /><path
          id="path16"
          style="fill:#ffffff;fill-opacity:1;fill-rule:nonzero;stroke:none"
          d="m 1269.51,1171.59 c 0,-209.031 173.44,-218.262 173.44,-218.262 h 255.1 v 218.262 h -132.3 v -102.86 h -79.12 c 0,0 -81.58,-3.96 -81.66,102.86 -0.08,100.22 77.23,91.65 77.23,91.65 l 215.93,0.06 v 109.4 h -257.07 c 0,0 -171.55,7.91 -171.55,-201.11"/><path
          id="path18"
          style="fill:#ffffff;fill-opacity:1;fill-rule:nonzero;stroke:none"
          d="m 1097.82,1174.92 c 0,0 7.59,-120 -89.25,-120 h -1.68 c -96.855,0 -89.257,120 -89.257,120 v 197.75 l -129.762,0.06 v -240.67 c 0,0 -0.633,-187.259 219.019,-187.259 h 1.81 c 219.63,0 219.01,187.259 219.01,187.259 v 240.67 l -129.89,-0.06 v -197.75"/><path
          id="path20"
          style="fill:#ffffff;fill-opacity:1;fill-rule:nonzero;stroke:none"
          d="m 737.254,1252 v 120.43 l -388.719,0.2 V 1263.18 H 551.723 L 339.035,1068.66 V 953.27 h 405.75 v 115.39 H 536.527 L 737.254,1252"/><path
          id="path22"
          style="fill:#ffffff;fill-opacity:1;fill-rule:nonzero;stroke:none"
          d="M 1007.95,1523.84 890.801,1811.63 760.918,1811.52 924.867,1406 h 165.843 l 163.95,405.52 -129.88,0.11 -116.83,-287.79"/></g></g></svg>
