<svg id="Ebene_1_Kopie" data-name="Ebene 1 Kopie" xmlns="http://www.w3.org/2000/svg" viewBox="0 0 203.72 204.09">
  <defs>
    <style>.cls-1{fill:#003f6d;}</style>
  </defs>
  <path class="cls-1"
        d="M10,8.4,26,143.53s8.27,69,84.81,69H113c76.81,0,84.8-69,84.8-69l16-135.13ZM185.5,136.08s-4.25,63.7-73.62,63.7c-69.65,0-73.62-63.7-73.62-63.7l-13.59-115H199.09Z"
        transform="translate(-10.02 -8.4)"/>
  <path class="cls-1"
        d="M137,95.34c0,20.9,17.34,21.82,17.34,21.82h25.51V95.34H166.6v10.28h-7.91s-8.16.4-8.17-10.28c0-10,7.72-9.17,7.72-9.17h21.6V75.23H154.13S137,74.43,137,95.34Z"
        transform="translate(-10.02 -8.4)"/>
  <path class="cls-1"
        d="M119.81,95s.76,12-8.93,12h-.17c-9.68,0-8.92-12-8.92-12V75.23h-13V99.29S88.75,118,110.71,118h.18c22,0,21.91-18.73,21.91-18.73V75.22h-13Z"
        transform="translate(-10.02 -8.4)"/>
  <polygon class="cls-1"
           points="73.72 78.89 73.72 66.85 34.85 66.83 34.85 77.77 55.17 77.77 33.9 97.22 33.9 108.76 74.48 108.76 74.48 97.22 53.65 97.22 73.72 78.89"/>
  <polygon class="cls-1"
           points="100.8 51.71 89.08 22.93 76.09 22.94 92.49 63.49 109.07 63.49 125.47 22.94 112.48 22.93 100.8 51.71"/>
</svg>
